RobotoSerifMicro-Regular Italic 04.ufo
<glyph name="ampersand" format="2">
  <advance width="799"/>
  <unicode hex="0026"/>
  <outline>
    <contour>
      <point x="657" y="0" type="line"/>
      <point x="672" y="62" type="line"/>
      <point x="627" y="62" type="line" smooth="yes"/>
      <point x="577" y="62"/>
      <point x="556" y="84"/>
      <point x="532" y="117" type="curve" smooth="yes"/>
      <point x="388" y="317"/>
      <point x="322" y="413"/>
      <point x="322" y="517" type="curve" smooth="yes"/>
      <point x="322" y="618"/>
      <point x="356" y="663"/>
      <point x="439" y="663" type="curve" smooth="yes"/>
      <point x="500.0" y="663.0"/>
      <point x="525" y="638"/>
      <point x="525" y="581" type="curve" smooth="yes"/>
      <point x="525" y="488"/>
      <point x="469" y="467"/>
      <point x="322" y="436" type="curve"/>
      <point x="334" y="391" type="line"/>
      <point x="490" y="420"/>
      <point x="603" y="465"/>
      <point x="603" y="584" type="curve" smooth="yes"/>
      <point x="603" y="669"/>
      <point x="546" y="718"/>
      <point x="439" y="718" type="curve" smooth="yes"/>
      <point x="306.0" y="718.0"/>
      <point x="234" y="637"/>
      <point x="234" y="514" type="curve" smooth="yes"/>
      <point x="234" y="366"/>
      <point x="370" y="200"/>
      <point x="508" y="0" type="curve"/>
    </contour>
    <contour>
      <point x="624" y="280"/>
      <point x="496" y="45"/>
      <point x="276" y="45" type="curve" smooth="yes"/>
      <point x="169" y="45"/>
      <point x="122" y="88"/>
      <point x="122" y="198" type="curve" smooth="yes"/>
      <point x="122.0" y="305.0"/>
      <point x="182.0" y="368"/>
      <point x="291" y="384" type="curve"/>
      <point x="280" y="430" type="line"/>
      <point x="142" y="409"/>
      <point x="24" y="346"/>
      <point x="24" y="198" type="curve" smooth="yes"/>
      <point x="24" y="66"/>
      <point x="106" y="-10"/>
      <point x="272" y="-10" type="curve" smooth="yes"/>
      <point x="500" y="-10"/>
      <point x="626" y="192"/>
      <point x="674" y="297" type="curve" smooth="yes"/>
      <point x="693" y="339"/>
      <point x="714" y="345"/>
      <point x="762" y="345" type="curve" smooth="yes"/>
      <point x="773" y="345" type="line"/>
      <point x="788" y="407" type="line"/>
      <point x="566" y="407" type="line"/>
      <point x="551" y="345" type="line"/>
      <point x="560" y="345" type="line" smooth="yes"/>
      <point x="580" y="345"/>
      <point x="624" y="342"/>
      <point x="624" y="335" type="curve"/>
    </contour>
  </outline>
</glyph>
<glyph name="eight" format="2">
  <advance width="560"/>
  <unicode hex="0038"/>
  <outline>
    <contour>
      <point x="159" y="48"/>
      <point x="112" y="89"/>
      <point x="112" y="169" type="curve" smooth="yes"/>
      <point x="112" y="186"/>
      <point x="114" y="207"/>
      <point x="119" y="228" type="curve" smooth="yes"/>
      <point x="143" y="322"/>
      <point x="192" y="347"/>
      <point x="267" y="347" type="curve" smooth="yes"/>
      <point x="348" y="347"/>
      <point x="398" y="314"/>
      <point x="398" y="238" type="curve" smooth="yes"/>
      <point x="398" y="218"/>
      <point x="396" y="195"/>
      <point x="389" y="169" type="curve" smooth="yes"/>
      <point x="366" y="80"/>
      <point x="321" y="48"/>
      <point x="254" y="48" type="curve" smooth="yes"/>
    </contour>
    <contour>
      <point x="496" y="322"/>
      <point x="381" y="381"/>
      <point x="274" y="381" type="curve" smooth="yes"/>
      <point x="113" y="381"/>
      <point x="14" y="310"/>
      <point x="14" y="178" type="curve" smooth="yes"/>
      <point x="14" y="63"/>
      <point x="102" y="-10"/>
      <point x="252" y="-10" type="curve" smooth="yes"/>
      <point x="414" y="-10"/>
      <point x="496" y="87"/>
      <point x="496" y="201" type="curve" smooth="yes"/>
    </contour>
    <contour>
      <point x="258" y="397"/>
      <point x="206" y="427"/>
      <point x="206" y="500" type="curve" smooth="yes"/>
      <point x="206" y="516"/>
      <point x="208" y="533"/>
      <point x="213" y="552" type="curve" smooth="yes"/>
      <point x="232" y="627"/>
      <point x="275" y="662"/>
      <point x="345" y="662" type="curve" smooth="yes"/>
      <point x="429" y="662"/>
      <point x="464" y="628"/>
      <point x="464" y="563" type="curve" smooth="yes"/>
      <point x="464" y="542"/>
      <point x="461" y="516"/>
      <point x="456" y="497" type="curve" smooth="yes"/>
      <point x="435" y="418"/>
      <point x="396" y="397"/>
      <point x="333" y="397" type="curve" smooth="yes"/>
    </contour>
    <contour>
      <point x="547" y="651"/>
      <point x="475" y="720"/>
      <point x="347" y="720" type="curve"/>
      <point x="197" y="720"/>
      <point x="123" y="625"/>
      <point x="123" y="523" type="curve" smooth="yes"/>
      <point x="123" y="419"/>
      <point x="219" y="363"/>
      <point x="340" y="363" type="curve" smooth="yes"/>
      <point x="452" y="363"/>
      <point x="547" y="419"/>
      <point x="547" y="552" type="curve"/>
    </contour>
  </outline>
</glyph>
<glyph name="less" format="2">
  <advance width="560"/>
  <unicode hex="003C"/>
  <outline>
    <contour>
      <point x="533" y="566" type="line"/>
      <point x="95" y="377" type="line"/>
      <point x="85" y="336" type="line"/>
      <point x="100" y="309" type="line"/>
      <point x="512" y="482" type="line"/>
    </contour>
    <contour>
      <point x="437" y="182" type="line"/>
      <point x="112" y="355" type="line"/>
      <point x="87" y="344" type="line"/>
      <point x="75" y="293" type="line"/>
      <point x="417" y="104" type="line"/>
    </contour>
  </outline>
</glyph>
<glyph name="B" format="2">
  <advance width="711"/>
  <unicode hex="0042"/>
  <outline>
    <contour>
      <point x="527" y="224" type="curve" smooth="yes"/>
      <point x="527" y="120"/>
      <point x="468.0" y="62.0"/>
      <point x="346" y="62" type="curve" smooth="yes"/>
      <point x="176" y="62" type="line"/>
      <point x="322" y="648" type="line"/>
      <point x="450" y="648" type="line" smooth="yes"/>
      <point x="537.0" y="648.0"/>
      <point x="563" y="607"/>
      <point x="563" y="548" type="curve" smooth="yes"/>
      <point x="563.0" y="453.0"/>
      <point x="503.0" y="402.0"/>
      <point x="417" y="402" type="curve" smooth="yes"/>
      <point x="219" y="402" type="line"/>
      <point x="204" y="342" type="line"/>
      <point x="394" y="342" type="line" smooth="yes"/>
      <point x="483.0" y="342.0"/>
      <point x="527" y="299"/>
    </contour>
    <contour>
      <point x="-29" y="0" type="line"/>
      <point x="339" y="0" type="line" smooth="yes"/>
      <point x="517.0" y="0.0"/>
      <point x="625" y="69"/>
      <point x="625" y="213" type="curve" smooth="yes"/>
      <point x="625" y="301"/>
      <point x="556" y="365"/>
      <point x="434" y="371" type="curve"/>
      <point x="423" y="371"/>
      <point x="433" y="349"/>
      <point x="438" y="349" type="curve"/>
      <point x="448" y="388" type="line"/>
      <point x="437" y="375" type="line"/>
      <point x="584" y="379"/>
      <point x="658" y="449"/>
      <point x="658" y="559" type="curve"/>
      <point x="658" y="650"/>
      <point x="592.0" y="710.0"/>
      <point x="455" y="710" type="curve" smooth="yes"/>
      <point x="149" y="710" type="line"/>
      <point x="133" y="648" type="line"/>
      <point x="144" y="648" type="line" smooth="yes"/>
      <point x="193" y="648"/>
      <point x="227" y="640"/>
      <point x="220" y="612" type="curve" smooth="yes"/>
      <point x="92" y="98" type="line" smooth="yes"/>
      <point x="85" y="69"/>
      <point x="47" y="62"/>
      <point x="-2" y="62" type="curve" smooth="yes"/>
      <point x="-13" y="62" type="line"/>
    </contour>
  </outline>
</glyph>
<glyph name="grave" format="2">
  <advance width="500"/>
  <unicode hex="0060"/>
  <anchor x="214" y="531" name="_top"/>
  <outline>
    <contour>
      <point x="265" y="810" type="curve" smooth="yes"/>
      <point x="318" y="687" type="line"/>
      <point x="315" y="661" type="line"/>
      <point x="279" y="661" type="line"/>
      <point x="172" y="753" type="line" smooth="yes"/>
      <point x="150" y="772"/>
      <point x="135" y="791"/>
      <point x="135" y="818" type="curve" smooth="yes"/>
      <point x="135.0" y="846.0"/>
      <point x="157" y="872"/>
      <point x="195" y="872" type="curve" smooth="yes"/>
      <point x="235.0" y="872.0"/>
      <point x="250" y="845"/>
    </contour>
  </outline>
</glyph>
<glyph name="u" format="2">
  <advance width="668"/>
  <unicode hex="0075"/>
  <anchor x="292.0" y="551.0" name="top"/>
  <anchor x="292.0" y="0.0" name="bottom"/>
  <anchor x="472.0" y="0.0" name="right"/>
  <outline>
    <contour>
      <point x="419" y="160" type="line"/>
      <point x="519" y="565" type="line"/>
      <point x="607" y="565" type="line"/>
      <point x="529" y="248" type="line" smooth="yes"/>
      <point x="500" y="131"/>
      <point x="486" y="88"/>
      <point x="486" y="76" type="curve" smooth="yes"/>
      <point x="486" y="67"/>
      <point x="490" y="63"/>
      <point x="502" y="63" type="curve" smooth="yes"/>
      <point x="610" y="63" type="line"/>
      <point x="599" y="0" type="line"/>
      <point x="483" y="0" type="line" smooth="yes"/>
      <point x="440" y="0"/>
      <point x="419" y="17"/>
      <point x="419" y="53" type="curve" smooth="yes"/>
      <point x="419" y="65"/>
      <point x="422" y="116"/>
      <point x="427" y="172" type="curve"/>
    </contour>
    <contour>
      <point x="167" y="460" type="line" smooth="yes"/>
      <point x="171" y="478"/>
      <point x="130" y="494"/>
      <point x="79" y="505" type="curve" smooth="yes"/>
      <point x="70" y="507" type="line"/>
      <point x="84" y="565" type="line"/>
      <point x="280" y="565" type="line"/>
      <point x="184" y="179" type="line" smooth="yes"/>
      <point x="175" y="143"/>
      <point x="170" y="125"/>
      <point x="170" y="106" type="curve" smooth="yes"/>
      <point x="170" y="78"/>
      <point x="186" y="60"/>
      <point x="226" y="60" type="curve" smooth="yes"/>
      <point x="300" y="60"/>
      <point x="368" y="121"/>
      <point x="458" y="227" type="curve"/>
      <point x="463" y="192" type="line"/>
      <point x="385" y="73"/>
      <point x="295" y="-10"/>
      <point x="181" y="-10" type="curve" smooth="yes"/>
      <point x="110" y="-10"/>
      <point x="78" y="25"/>
      <point x="78" y="75" type="curve" smooth="yes"/>
      <point x="78" y="107"/>
      <point x="87" y="140"/>
      <point x="97" y="179" type="curve" smooth="yes"/>
    </contour>
  </outline>
</glyph>
<glyph name="w" format="2">
  <advance width="837"/>
  <unicode hex="0077"/>
  <anchor x="459" y="551" name="top"/>
  <outline>
    <contour>
      <point x="472" y="482" type="line"/>
      <point x="240" y="0" type="line"/>
      <point x="148" y="0" type="line"/>
      <point x="128" y="460" type="line" smooth="yes"/>
      <point x="127" y="479"/>
      <point x="87" y="493"/>
      <point x="41" y="504" type="curve" smooth="yes"/>
      <point x="28" y="507" type="line"/>
      <point x="42" y="565" type="line"/>
      <point x="200" y="565" type="line"/>
      <point x="222" y="32" type="line"/>
      <point x="207" y="40" type="line"/>
      <point x="445" y="565" type="line"/>
      <point x="518" y="565" type="line"/>
      <point x="545" y="30" type="line"/>
      <point x="533" y="40" type="line"/>
      <point x="762" y="565" type="line"/>
      <point x="846" y="565" type="line"/>
      <point x="846" y="555" type="line"/>
      <point x="566" y="0" type="line"/>
      <point x="476" y="0" type="line"/>
      <point x="449" y="462" type="line"/>
    </contour>
  </outline>
</glyph>
<glyph name="x" format="2">
  <advance width="607"/>
  <unicode hex="0078"/>
  <outline>
    <contour>
      <point x="330" y="270" type="line"/>
      <point x="583" y="554" type="line"/>
      <point x="583" y="565" type="line"/>
      <point x="491" y="565" type="line"/>
      <point x="319" y="323" type="line"/>
    </contour>
    <contour>
      <point x="266" y="315" type="line"/>
      <point x="-1" y="11" type="line"/>
      <point x="-2" y="0" type="line"/>
      <point x="91" y="0" type="line"/>
      <point x="280" y="258" type="line"/>
    </contour>
    <contour>
      <point x="193" y="460" type="curve" smooth="yes"/>
      <point x="334" y="72" type="line" smooth="yes"/>
      <point x="354" y="16"/>
      <point x="375.0" y="0"/>
      <point x="433" y="0" type="curve" smooth="yes"/>
      <point x="524" y="0" type="line"/>
      <point x="535" y="62" type="line"/>
      <point x="455" y="62" type="line" smooth="yes"/>
      <point x="432.0" y="62"/>
      <point x="423" y="68"/>
      <point x="416" y="87" type="curve" smooth="yes"/>
      <point x="246" y="565" type="line"/>
      <point x="91" y="565" type="line"/>
      <point x="75" y="507" type="line"/>
      <point x="90" y="504" type="line" smooth="yes"/>
      <point x="136" y="495"/>
      <point x="186" y="478"/>
    </contour>
  </outline>
</glyph>
<glyph name="y" format="2">
  <advance width="573"/>
  <unicode hex="0079"/>
  <anchor x="350" y="551" name="top"/>
  <anchor x="363" y="-211" name="bottom"/>
  <outline>
    <contour>
      <point x="238" y="71" type="line"/>
      <point x="497" y="565" type="line"/>
      <point x="583" y="565" type="line"/>
      <point x="583" y="555" type="line"/>
      <point x="277" y="37" type="line"/>
      <point x="130" y="-223" type="line"/>
      <point x="26" y="-223" type="line"/>
      <point x="28" y="-201" type="line"/>
      <point x="227" y="43" type="line"/>
    </contour>
    <contour>
      <point x="203" y="0" type="line"/>
      <point x="135" y="460" type="line" smooth="yes"/>
      <point x="132" y="479"/>
      <point x="94" y="493"/>
      <point x="48" y="504" type="curve" smooth="yes"/>
      <point x="35" y="507" type="line"/>
      <point x="49" y="565" type="line"/>
      <point x="209" y="565" type="line"/>
      <point x="272" y="87" type="line"/>
      <point x="243" y="42" type="line"/>
    </contour>
  </outline>
</glyph>
<glyph name="multiply" format="2">
  <advance width="560"/>
  <unicode hex="00D7"/>
  <outline>
    <contour>
      <point x="476" y="535" type="line"/>
      <point x="58" y="199" type="line"/>
      <point x="98" y="147" type="line"/>
      <point x="516" y="483" type="line"/>
    </contour>
    <contour>
      <point x="435" y="192" type="line"/>
      <point x="193" y="535" type="line"/>
      <point x="137" y="490" type="line"/>
      <point x="379" y="147" type="line"/>
    </contour>
  </outline>
</glyph>
<glyph name="oslash" format="2">
  <advance width="640"/>
  <unicode hex="00F8"/>
  <anchor x="328" y="551.0" name="top"/>
  <outline>
    <contour>
      <point x="279" y="-13" type="curve" smooth="yes"/>
      <point x="481" y="-13"/>
      <point x="593" y="172"/>
      <point x="593" y="358" type="curve" smooth="yes"/>
      <point x="593" y="490"/>
      <point x="509" y="575"/>
      <point x="361" y="575" type="curve" smooth="yes"/>
      <point x="159" y="575"/>
      <point x="47" y="390"/>
      <point x="47" y="204" type="curve" smooth="yes"/>
      <point x="47" y="72"/>
      <point x="131" y="-13"/>
    </contour>
    <contour>
      <point x="351" y="511" type="curve" smooth="yes"/>
      <point x="470" y="511"/>
      <point x="499" y="461"/>
      <point x="499" y="367" type="curve" smooth="yes"/>
      <point x="499" y="215"/>
      <point x="440" y="51"/>
      <point x="289" y="51" type="curve" smooth="yes"/>
      <point x="170" y="51"/>
      <point x="141" y="101"/>
      <point x="141" y="195" type="curve" smooth="yes"/>
      <point x="141" y="347"/>
      <point x="200" y="511"/>
    </contour>
    <contour>
      <point x="619" y="576.0" type="line"/>
      <point x="-66" y="-13.0" type="line"/>
      <point x="13" y="-13.0" type="line"/>
      <point x="698" y="576.0" type="line"/>
    </contour>
  </outline>
</glyph>
<glyph name="imacron" format="2">
  <advance width="350"/>
  <unicode hex="012B"/>
  <outline>
    <contour>
      <point x="57" y="778" type="line"/>
      <point x="39" y="708" type="line"/>
      <point x="369" y="708" type="line"/>
      <point x="387" y="778" type="line"/>
    </contour>
    <component base="dotlessi"/>
  </outline>
</glyph>
<glyph name="Schwa" format="2">
  <advance width="780"/>
  <unicode hex="018F"/>
  <outline>
    <contour>
      <point x="630" y="471" type="curve" smooth="yes"/>
      <point x="630" y="238"/>
      <point x="508" y="39"/>
      <point x="333" y="39" type="curve" smooth="yes"/>
      <point x="224" y="39"/>
      <point x="146" y="90"/>
      <point x="146" y="204" type="curve" smooth="yes"/>
      <point x="146" y="247"/>
      <point x="152" y="291"/>
      <point x="164" y="337" type="curve"/>
      <point x="147" y="325" type="line"/>
      <point x="635" y="325" type="line"/>
      <point x="651" y="389" type="line"/>
      <point x="77" y="389" type="line"/>
      <point x="62" y="335"/>
      <point x="53" y="283"/>
      <point x="53" y="232" type="curve" smooth="yes"/>
      <point x="53" y="78"/>
      <point x="153" y="-25"/>
      <point x="331" y="-25" type="curve" smooth="yes"/>
      <point x="549" y="-25"/>
      <point x="727" y="182"/>
      <point x="727" y="448" type="curve" smooth="yes"/>
      <point x="727" y="636"/>
      <point x="601" y="750"/>
      <point x="412" y="750" type="curve" smooth="yes"/>
      <point x="283" y="750"/>
      <point x="187" y="699"/>
      <point x="115" y="619" type="curve"/>
      <point x="164" y="574" type="line"/>
      <point x="227" y="645"/>
      <point x="296" y="686"/>
      <point x="409" y="686" type="curve" smooth="yes"/>
      <point x="561" y="686"/>
      <point x="630" y="610"/>
    </contour>
  </outline>
</glyph>
<glyph name="hungarumlaut" format="2">
  <advance width="500"/>
  <unicode hex="02DD"/>
  <guideline x="0" y="871" angle="0" identifier="FEmGisLugX"/>
  <anchor x="135" y="525" name="_top"/>
  <outline>
    <contour>
      <point x="112" y="816" type="curve" smooth="yes"/>
      <point x="53" y="687" type="line"/>
      <point x="47" y="661" type="line"/>
      <point x="77" y="661" type="line"/>
      <point x="182" y="749" type="line" smooth="yes"/>
      <point x="215" y="776"/>
      <point x="232" y="794"/>
      <point x="232" y="824" type="curve" smooth="yes"/>
      <point x="232" y="849"/>
      <point x="215" y="871"/>
      <point x="181" y="871" type="curve" smooth="yes"/>
      <point x="147.0" y="871.0"/>
      <point x="127" y="849"/>
    </contour>
    <contour>
      <point x="312" y="816" type="curve" smooth="yes"/>
      <point x="253" y="687" type="line"/>
      <point x="247" y="661" type="line"/>
      <point x="277" y="661" type="line"/>
      <point x="382" y="749" type="line" smooth="yes"/>
      <point x="415" y="776"/>
      <point x="432" y="794"/>
      <point x="432" y="824" type="curve" smooth="yes"/>
      <point x="432" y="849"/>
      <point x="415" y="871"/>
      <point x="381" y="871" type="curve" smooth="yes"/>
      <point x="347.0" y="871.0"/>
      <point x="327" y="849"/>
    </contour>
  </outline>
</glyph>
<glyph name="Omega" format="2">
  <advance width="884"/>
  <unicode hex="03A9"/>
  <outline>
    <contour>
      <point x="673" y="735"/>
      <point x="799" y="634"/>
      <point x="799" y="488" type="curve" smooth="yes"/>
      <point x="799.0" y="345.0"/>
      <point x="707" y="257"/>
      <point x="457" y="55" type="curve"/>
      <point x="451" y="72" type="line"/>
      <point x="560" y="72" type="line" smooth="yes"/>
      <point x="646" y="72"/>
      <point x="683" y="87"/>
      <point x="698" y="123" type="curve" smooth="yes"/>
      <point x="736" y="216" type="line"/>
      <point x="797" y="216" type="line"/>
      <point x="743" y="0" type="line"/>
      <point x="410" y="0" type="line"/>
      <point x="436" y="102" type="line"/>
      <point x="592" y="239"/>
      <point x="699" y="352"/>
      <point x="699" y="492" type="curve" smooth="yes"/>
      <point x="699.0" y="608.0"/>
      <point x="612" y="671"/>
      <point x="479" y="671" type="curve"/>
      <point x="308" y="671"/>
      <point x="218" y="576"/>
      <point x="218" y="393" type="curve" smooth="yes"/>
      <point x="218" y="289"/>
      <point x="270" y="206"/>
      <point x="324" y="102" type="curve"/>
      <point x="298" y="0" type="line"/>
      <point x="-41" y="0" type="line"/>
      <point x="13" y="216" type="line"/>
      <point x="74" y="216" type="line"/>
      <point x="66" y="123" type="line" smooth="yes"/>
      <point x="63" y="87"/>
      <point x="92" y="72"/>
      <point x="178" y="72" type="curve" smooth="yes"/>
      <point x="293" y="72" type="line"/>
      <point x="283" y="59" type="line"/>
      <point x="186" y="212"/>
      <point x="118" y="313"/>
      <point x="118" y="418" type="curve" smooth="yes"/>
      <point x="118.0" y="614"/>
      <point x="275" y="735"/>
      <point x="479" y="735" type="curve" smooth="yes"/>
    </contour>
  </outline>
</glyph>
<glyph name="Germandbls" format="2">
  <advance width="863"/>
  <unicode hex="1E9E"/>
  <outline>
    <contour>
      <point x="548" y="48" type="curve" smooth="yes"/>
      <point x="439.0" y="48.000000000000014"/>
      <point x="398" y="93"/>
      <point x="407" y="229" type="curve"/>
      <point x="333" y="229" type="line"/>
      <point x="275" y="0" type="line"/>
      <point x="344" y="0" type="line"/>
      <point x="390" y="139" type="line"/>
      <point x="365" y="184"/>
      <point x="379.0" y="140.0"/>
      <point x="379" y="123" type="curve" smooth="yes"/>
      <point x="379.0" y="23.0"/>
      <point x="439.0" y="-14.0"/>
      <point x="542" y="-14" type="curve" smooth="yes"/>
      <point x="708.0" y="-14.0"/>
      <point x="776.0" y="78.0"/>
      <point x="776" y="206" type="curve" smooth="yes"/>
      <point x="776.0" y="323.0"/>
      <point x="679" y="367"/>
      <point x="529" y="421" type="curve"/>
      <point x="562" y="391" type="line"/>
      <point x="783" y="630" type="line"/>
      <point x="803" y="710" type="line"/>
      <point x="482" y="710" type="line" smooth="yes"/>
      <point x="303.0" y="710.0"/>
      <point x="224" y="633"/>
      <point x="183" y="466" type="curve" smooth="yes"/>
      <point x="92" y="98" type="line" smooth="yes"/>
      <point x="85" y="69"/>
      <point x="47.0" y="61.99999999999999"/>
      <point x="-2" y="62" type="curve" smooth="yes"/>
      <point x="-13" y="62" type="line"/>
      <point x="-29" y="0" type="line"/>
      <point x="160" y="0" type="line"/>
      <point x="278" y="473" type="line" smooth="yes"/>
      <point x="306" y="585"/>
      <point x="335" y="648.0"/>
      <point x="474" y="648" type="curve" smooth="yes"/>
      <point x="723" y="648" type="line"/>
      <point x="725" y="649"/>
      <point x="726.486256851627" y="650.8237491005171"/>
      <point x="727" y="653" type="curve" smooth="yes"/>
      <point x="727.9190116821894" y="656.8929959578709"/>
      <point x="721.0" y="661.0"/>
      <point x="711" y="661" type="curve" smooth="yes"/>
      <point x="708.0" y="661.0"/>
      <point x="706" y="660"/>
      <point x="703" y="660" type="curve"/>
      <point x="495" y="432" type="line"/>
      <point x="479" y="370" type="line"/>
      <point x="621" y="316"/>
      <point x="683.0" y="293.0"/>
      <point x="683" y="206" type="curve" smooth="yes"/>
      <point x="683.0" y="107.0"/>
      <point x="652.0" y="47.999999999999986"/>
    </contour>
  </outline>
</glyph>
<glyph name="approxequal" format="2">
  <advance width="560"/>
  <unicode hex="2248"/>
  <guideline x="0" y="522" angle="0" identifier="06f5HE49gb"/>
  <guideline x="0" y="455" angle="0" identifier="xNsUfUeWT3"/>
  <guideline x="0" y="337" angle="0" identifier="gssFTF0DMg"/>
  <guideline x="0" y="405" angle="0" identifier="R6pXO58ufv"/>
  <outline>
    <contour>
      <point x="392" y="337" type="curve"/>
      <point x="478" y="337"/>
      <point x="520" y="406"/>
      <point x="556" y="509" type="curve"/>
      <point x="501" y="527" type="line"/>
      <point x="478" y="462"/>
      <point x="454" y="405"/>
      <point x="402" y="405" type="curve" smooth="yes"/>
      <point x="328.0" y="405.0"/>
      <point x="345" y="522"/>
      <point x="229" y="522" type="curve" smooth="yes"/>
      <point x="143" y="522"/>
      <point x="103" y="456"/>
      <point x="68" y="350" type="curve"/>
      <point x="124" y="332" type="line"/>
      <point x="144" y="395"/>
      <point x="166" y="455"/>
      <point x="217" y="455" type="curve" smooth="yes"/>
      <point x="287" y="455"/>
      <point x="281" y="337"/>
    </contour>
    <contour>
      <point x="335" y="88" type="curve"/>
      <point x="421" y="88"/>
      <point x="463" y="157"/>
      <point x="499" y="260" type="curve"/>
      <point x="444" y="278" type="line"/>
      <point x="421" y="213"/>
      <point x="397" y="156"/>
      <point x="345" y="156" type="curve" smooth="yes"/>
      <point x="271.0" y="156.0"/>
      <point x="288" y="273"/>
      <point x="172" y="273" type="curve" smooth="yes"/>
      <point x="86" y="273"/>
      <point x="46" y="207"/>
      <point x="11" y="101" type="curve"/>
      <point x="67" y="83" type="line"/>
      <point x="87" y="146"/>
      <point x="109" y="206"/>
      <point x="160" y="206" type="curve" smooth="yes"/>
      <point x="230" y="206"/>
      <point x="224" y="88"/>
    </contour>
  </outline>
</glyph>
<glyph name="Delta" format="2">
  <advance width="757"/>
  <outline>
    <contour>
      <point x="-49" y="0" type="line"/>
      <point x="628" y="0" type="line"/>
      <point x="650" y="87" type="line"/>
      <point x="526" y="710" type="line"/>
      <point x="409" y="710" type="line"/>
      <point x="-27" y="87" type="line"/>
    </contour>
    <contour>
      <point x="562" y="57" type="line"/>
      <point x="588" y="82" type="line"/>
      <point x="3" y="82" type="line"/>
      <point x="27" y="49" type="line"/>
      <point x="473" y="692" type="line"/>
      <point x="437" y="700" type="line"/>
    </contour>
  </outline>
</glyph>
<glyph name="breve_tilde" format="2">
  <advance width="500"/>
  <guideline x="119" y="766" angle="90.0" identifier="r0GYj8BHGP"/>
  <guideline x="0" y="665" angle="0" identifier="eqnrBPxxUq"/>
  <guideline x="0" y="739" angle="0" identifier="pVViUMh1sT"/>
  <guideline x="0" y="823" angle="0" identifier="UJKh4sjSzY"/>
  <anchor x="195" y="524" name="_top"/>
  <outline>
    <contour>
      <point x="278.0" y="973.0"/>
      <point x="264" y="885"/>
      <point x="354" y="885" type="curve" smooth="yes"/>
      <point x="409" y="885"/>
      <point x="441" y="916"/>
      <point x="476" y="1021" type="curve"/>
      <point x="426" y="1040" type="line"/>
      <point x="401" y="976"/>
      <point x="392" y="950"/>
      <point x="362" y="950" type="curve" smooth="yes"/>
      <point x="313" y="950"/>
      <point x="323" y="1035"/>
      <point x="232" y="1035" type="curve" smooth="yes"/>
      <point x="174" y="1035"/>
      <point x="136" y="1002"/>
      <point x="100" y="903" type="curve"/>
      <point x="150" y="884" type="line"/>
      <point x="176" y="946"/>
      <point x="190" y="973"/>
      <point x="223" y="973" type="curve" smooth="yes"/>
    </contour>
    <contour>
      <point x="252" y="665" type="curve" smooth="yes"/>
      <point x="150.0" y="665.0"/>
      <point x="109" y="708"/>
      <point x="109" y="779" type="curve" smooth="yes"/>
      <point x="109" y="800"/>
      <point x="110" y="810"/>
      <point x="113" y="823" type="curve"/>
      <point x="181" y="823" type="line"/>
      <point x="177" y="770"/>
      <point x="179" y="739"/>
      <point x="257" y="739" type="curve" smooth="yes"/>
      <point x="328.0" y="739.0"/>
      <point x="344" y="755"/>
      <point x="361" y="823" type="curve"/>
      <point x="427" y="823" type="line"/>
      <point x="406" y="703"/>
      <point x="354" y="665"/>
    </contour>
  </outline>
</glyph>
<glyph name="breve_tilde.uc" format="2">
  <advance width="500"/>
  <anchor x="162" y="694" name="_top"/>
  <outline>
    <contour>
      <point x="276" y="1085"/>
      <point x="262" y="997"/>
      <point x="352" y="997" type="curve" smooth="yes"/>
      <point x="407" y="997"/>
      <point x="439" y="1028"/>
      <point x="474" y="1133" type="curve"/>
      <point x="424" y="1152" type="line"/>
      <point x="399" y="1088"/>
      <point x="390" y="1062"/>
      <point x="360" y="1062" type="curve" smooth="yes"/>
      <point x="311" y="1062"/>
      <point x="321" y="1147"/>
      <point x="230" y="1147" type="curve" smooth="yes"/>
      <point x="172" y="1147"/>
      <point x="134" y="1114"/>
      <point x="98" y="1015" type="curve"/>
      <point x="148" y="996" type="line"/>
      <point x="174" y="1058"/>
      <point x="188" y="1085"/>
      <point x="221" y="1085" type="curve" smooth="yes"/>
    </contour>
    <contour>
      <point x="425" y="933" type="line"/>
      <point x="403" y="812"/>
      <point x="338" y="777"/>
      <point x="239" y="777" type="curve" smooth="yes"/>
      <point x="118.0" y="777.0"/>
      <point x="77" y="827"/>
      <point x="77" y="898" type="curve" smooth="yes"/>
      <point x="77" y="912"/>
      <point x="78" y="922"/>
      <point x="80" y="933" type="curve"/>
      <point x="149" y="933" type="line"/>
      <point x="145" y="881"/>
      <point x="159" y="856"/>
      <point x="246" y="856" type="curve" smooth="yes"/>
      <point x="315" y="856"/>
      <point x="342" y="869"/>
      <point x="359" y="933" type="curve"/>
    </contour>
  </outline>
</glyph>
<glyph name="eight.lin" format="2">
  <advance width="560"/>
  <outline>
    <contour>
      <point x="169" y="48"/>
      <point x="122" y="89"/>
      <point x="122" y="169" type="curve" smooth="yes"/>
      <point x="122" y="186"/>
      <point x="124" y="207"/>
      <point x="129" y="228" type="curve" smooth="yes"/>
      <point x="153" y="322"/>
      <point x="202" y="347"/>
      <point x="277" y="347" type="curve" smooth="yes"/>
      <point x="358" y="347"/>
      <point x="408" y="314"/>
      <point x="408" y="238" type="curve" smooth="yes"/>
      <point x="408" y="218"/>
      <point x="406" y="195"/>
      <point x="399" y="169" type="curve" smooth="yes"/>
      <point x="376" y="80"/>
      <point x="331" y="48"/>
      <point x="264" y="48" type="curve" smooth="yes"/>
    </contour>
    <contour>
      <point x="268" y="397"/>
      <point x="216" y="427"/>
      <point x="216" y="500" type="curve" smooth="yes"/>
      <point x="216" y="516"/>
      <point x="218" y="533"/>
      <point x="223" y="552" type="curve" smooth="yes"/>
      <point x="242" y="627"/>
      <point x="285" y="662"/>
      <point x="355" y="662" type="curve" smooth="yes"/>
      <point x="439" y="662"/>
      <point x="474" y="628"/>
      <point x="474" y="563" type="curve" smooth="yes"/>
      <point x="474" y="542"/>
      <point x="471" y="516"/>
      <point x="466" y="497" type="curve" smooth="yes"/>
      <point x="445" y="418"/>
      <point x="406" y="397"/>
      <point x="343" y="397" type="curve" smooth="yes"/>
    </contour>
    <contour>
      <point x="366" y="363" type="line"/>
      <point x="471" y="369"/>
      <point x="557" y="426"/>
      <point x="557" y="552" type="curve"/>
      <point x="557" y="651"/>
      <point x="485" y="720"/>
      <point x="357" y="720" type="curve"/>
      <point x="207" y="720"/>
      <point x="133" y="625"/>
      <point x="133" y="523" type="curve" smooth="yes"/>
      <point x="133" y="447"/>
      <point x="184" y="398"/>
      <point x="258" y="376" type="curve"/>
      <point x="258" y="376"/>
      <point x="236" y="390"/>
      <point x="236" y="390" type="curve"/>
      <point x="231" y="374" type="line"/>
      <point x="258" y="382" type="line"/>
      <point x="113" y="375"/>
      <point x="24" y="303"/>
      <point x="24" y="178" type="curve" smooth="yes"/>
      <point x="24" y="63"/>
      <point x="112" y="-10"/>
      <point x="262" y="-10" type="curve" smooth="yes"/>
      <point x="424" y="-10"/>
      <point x="506" y="87"/>
      <point x="506" y="201" type="curve" smooth="yes"/>
      <point x="506" y="291"/>
      <point x="443" y="346"/>
      <point x="362" y="369" type="curve"/>
      <point x="356" y="369"/>
      <point x="384" y="357"/>
      <point x="384" y="357" type="curve"/>
      <point x="388" y="370" type="line"/>
    </contour>
  </outline>
</glyph>
<glyph name="f_f_k" format="2">
  <advance width="1363"/>
  <outline>
    <contour>
      <point x="76" y="565" type="line"/>
      <point x="61" y="503" type="line"/>
      <point x="496" y="503" type="line"/>
      <point x="511" y="565" type="line"/>
    </contour>
    <contour>
      <point x="195" y="623" type="curve" smooth="yes"/>
      <point x="40" y="-223" type="line"/>
      <point x="114" y="-223" type="line"/>
      <point x="282" y="612" type="line" smooth="yes"/>
      <point x="297" y="685"/>
      <point x="311" y="708"/>
      <point x="368" y="708" type="curve" smooth="yes"/>
      <point x="405" y="708"/>
      <point x="429" y="701"/>
      <point x="444" y="697" type="curve"/>
      <point x="459" y="765" type="line"/>
      <point x="445" y="769"/>
      <point x="409" y="775"/>
      <point x="373" y="775" type="curve" smooth="yes"/>
      <point x="262" y="775"/>
      <point x="214" y="728"/>
    </contour>
    <contour>
      <point x="432" y="565" type="line"/>
      <point x="417" y="503" type="line"/>
      <point x="776" y="503" type="line"/>
      <point x="791" y="565" type="line"/>
    </contour>
    <contour>
      <point x="470" y="-223" type="line"/>
      <point x="641" y="627" type="line" smooth="yes"/>
      <point x="656" y="701"/>
      <point x="680" y="723"/>
      <point x="776" y="723" type="curve" smooth="yes"/>
      <point x="859" y="723"/>
      <point x="913" y="708"/>
      <point x="958" y="690" type="curve"/>
      <point x="970" y="744" type="line"/>
      <point x="932" y="764"/>
      <point x="867" y="790"/>
      <point x="777" y="790" type="curve" smooth="yes"/>
      <point x="637" y="790"/>
      <point x="573" y="744"/>
      <point x="554" y="638" type="curve" smooth="yes"/>
      <point x="396" y="-223" type="line"/>
    </contour>
    <contour>
      <point x="780" y="0" type="line"/>
      <point x="868" y="0" type="line"/>
      <point x="1060" y="780" type="line"/>
      <point x="853" y="780" type="line"/>
      <point x="956" y="715" type="line"/>
    </contour>
    <contour>
      <point x="1191" y="85" type="line" smooth="yes"/>
      <point x="1199" y="68"/>
      <point x="1206" y="63"/>
      <point x="1233" y="63" type="curve" smooth="yes"/>
      <point x="1300" y="63" type="line"/>
      <point x="1289" y="0" type="line"/>
      <point x="1192" y="0" type="line" smooth="yes"/>
      <point x="1131" y="0"/>
      <point x="1117" y="12"/>
      <point x="1096" y="59" type="curve" smooth="yes"/>
      <point x="990" y="300" type="line"/>
      <point x="991" y="305" type="line"/>
      <point x="1264" y="565" type="line"/>
      <point x="1364" y="565" type="line"/>
      <point x="1364" y="550" type="line"/>
      <point x="1028" y="273" type="line"/>
      <point x="1028" y="319"/>
      <point x="1050" y="338"/>
      <point x="1070" y="340" type="curve"/>
    </contour>
  </outline>
</glyph>
<glyph name="hook.uc" format="2">
  <advance width="500"/>
  <guideline x="0" y="1047" angle="0" identifier="gofXPQM9WP"/>
  <guideline x="0" y="986" angle="0" identifier="HDbZYUyVbh"/>
  <guideline x="0" y="827" angle="0" identifier="HsVGG56uNU"/>
  <guideline x="0" y="872" angle="0" identifier="AaC4MFca1h"/>
  <anchor x="164" y="679" name="_top"/>
  <outline>
    <contour>
      <point x="83" y="928" type="line"/>
      <point x="104" y="1013"/>
      <point x="172" y="1047"/>
      <point x="268" y="1047" type="curve" smooth="yes"/>
      <point x="372.0" y="1047.0"/>
      <point x="422" y="1012"/>
      <point x="422" y="942" type="curve" smooth="yes"/>
      <point x="422" y="872"/>
      <point x="358.0" y="827.0"/>
      <point x="250" y="827" type="curve"/>
      <point x="238" y="837"/>
      <point x="252" y="857"/>
      <point x="289" y="867" type="curve"/>
      <point x="266" y="776" type="line"/>
      <point x="180" y="776" type="line"/>
      <point x="204" y="872" type="line"/>
      <point x="300" y="872.0"/>
      <point x="329" y="896"/>
      <point x="329" y="942" type="curve" smooth="yes"/>
      <point x="329" y="971"/>
      <point x="314" y="986.0"/>
      <point x="265" y="986" type="curve" smooth="yes"/>
      <point x="217" y="986"/>
      <point x="190" y="972"/>
      <point x="175" y="928" type="curve"/>
    </contour>
  </outline>
</glyph>
<glyph name="hungarumlaut.uc" format="2">
  <advance width="500"/>
  <guideline x="0" y="971.0" angle="0" identifier="x8pIH10frl"/>
  <anchor x="138" y="694" name="_top"/>
  <outline>
    <contour>
      <point x="130" y="929" type="curve" smooth="yes"/>
      <point x="69" y="819" type="line"/>
      <point x="66" y="793" type="line"/>
      <point x="104" y="793" type="line"/>
      <point x="187" y="854" type="line" smooth="yes"/>
      <point x="223" y="881"/>
      <point x="241" y="901"/>
      <point x="241" y="926" type="curve" smooth="yes"/>
      <point x="241.0" y="951.0"/>
      <point x="222.0" y="971.0"/>
      <point x="191" y="971" type="curve" smooth="yes"/>
      <point x="162" y="971"/>
      <point x="145" y="955"/>
    </contour>
    <contour>
      <point x="310" y="929" type="curve" smooth="yes"/>
      <point x="249" y="819" type="line"/>
      <point x="246" y="793" type="line"/>
      <point x="284" y="793" type="line"/>
      <point x="367" y="854" type="line" smooth="yes"/>
      <point x="403" y="881"/>
      <point x="421" y="901"/>
      <point x="421" y="926" type="curve" smooth="yes"/>
      <point x="421.0" y="951.0"/>
      <point x="402.0" y="971.0"/>
      <point x="371" y="971" type="curve" smooth="yes"/>
      <point x="342" y="971"/>
      <point x="325" y="955"/>
    </contour>
  </outline>
</glyph>
<glyph name="schwa" format="2">
  <advance width="569"/>
  <guideline x="0" y="575" angle="0" identifier="ovUOs3Didh"/>
  <guideline x="0" y="511" angle="0" identifier="cra5bVMLU0"/>
  <guideline x="0" y="51" angle="0" identifier="kkNNvFqxJn"/>
  <guideline x="0" y="-13" angle="0" identifier="l4OahNyAEE"/>
  <outline>
    <contour>
      <point x="295" y="511" type="curve" smooth="yes"/>
      <point x="389" y="511"/>
      <point x="434" y="466"/>
      <point x="434" y="354" type="curve" smooth="yes"/>
      <point x="434" y="195"/>
      <point x="359" y="52"/>
      <point x="222" y="52" type="curve" smooth="yes"/>
      <point x="152" y="52"/>
      <point x="117" y="80"/>
      <point x="117" y="133" type="curve" smooth="yes"/>
      <point x="117" y="226"/>
      <point x="197" y="279"/>
      <point x="443" y="287" type="curve"/>
      <point x="448" y="340" type="line"/>
      <point x="172" y="334"/>
      <point x="33" y="263"/>
      <point x="33" y="130" type="curve" smooth="yes"/>
      <point x="33" y="50"/>
      <point x="88" y="-12"/>
      <point x="213" y="-12" type="curve" smooth="yes"/>
      <point x="397" y="-12"/>
      <point x="522" y="151"/>
      <point x="522" y="351" type="curve" smooth="yes"/>
      <point x="522" y="490"/>
      <point x="447" y="575"/>
      <point x="303" y="575" type="curve" smooth="yes"/>
      <point x="205" y="575"/>
      <point x="116" y="530"/>
      <point x="62" y="445" type="curve"/>
      <point x="114" y="409" type="line"/>
      <point x="153" y="463"/>
      <point x="213" y="511"/>
    </contour>
  </outline>
</glyph>
<glyph name="six.lin" format="2">
  <advance width="560"/>
  <outline>
    <contour>
      <point x="236" y="-10" type="curve" smooth="yes"/>
      <point x="96" y="-10"/>
      <point x="30" y="64"/>
      <point x="30" y="197" type="curve" smooth="yes"/>
      <point x="30" y="454"/>
      <point x="174" y="728"/>
      <point x="562" y="740" type="curve"/>
      <point x="554" y="675" type="line"/>
      <point x="155" y="667"/>
      <point x="121" y="333"/>
      <point x="121" y="184" type="curve" smooth="yes"/>
      <point x="121" y="92"/>
      <point x="156" y="50"/>
      <point x="241" y="50" type="curve" smooth="yes"/>
      <point x="350" y="50"/>
      <point x="406" y="157"/>
      <point x="406" y="299" type="curve" smooth="yes"/>
      <point x="406" y="367"/>
      <point x="374" y="408"/>
      <point x="316" y="408" type="curve" smooth="yes"/>
      <point x="247" y="408"/>
      <point x="194" y="378"/>
      <point x="112" y="247" type="curve"/>
      <point x="116" y="307" type="line"/>
      <point x="184" y="415"/>
      <point x="242" y="468"/>
      <point x="344" y="468" type="curve" smooth="yes"/>
      <point x="448" y="468"/>
      <point x="501" y="401"/>
      <point x="501" y="294" type="curve" smooth="yes"/>
      <point x="501" y="141"/>
      <point x="422" y="-10"/>
    </contour>
  </outline>
</glyph>
<glyph name="two.oldprop" format="2">
  <advance width="598"/>
  <outline>
    <contour>
      <point x="297" y="72" type="line" smooth="yes"/>
      <point x="379.0" y="72.0"/>
      <point x="413" y="79"/>
      <point x="425" y="113" type="curve" smooth="yes"/>
      <point x="454" y="195" type="line"/>
      <point x="520" y="195" type="line"/>
      <point x="475" y="0" type="line"/>
      <point x="-9" y="0" type="line"/>
      <point x="15" y="97" type="line"/>
      <point x="304" y="247"/>
      <point x="440" y="308"/>
      <point x="440" y="437" type="curve" smooth="yes"/>
      <point x="440.0" y="499.0"/>
      <point x="414.0" y="530.0"/>
      <point x="314" y="530" type="curve" smooth="yes"/>
      <point x="251" y="530"/>
      <point x="195" y="506"/>
      <point x="158" y="476" type="curve"/>
      <point x="168" y="503"/>
      <point x="218" y="538"/>
      <point x="212" y="514" type="curve" smooth="yes"/>
      <point x="179" y="385" type="line"/>
      <point x="88" y="385" type="line"/>
      <point x="123" y="524" type="line"/>
      <point x="160" y="551"/>
      <point x="236" y="589"/>
      <point x="324" y="589" type="curve" smooth="yes"/>
      <point x="458" y="589"/>
      <point x="535" y="538"/>
      <point x="535" y="437" type="curve" smooth="yes"/>
      <point x="535.0" y="278.0"/>
      <point x="293" y="186"/>
      <point x="36" y="52" type="curve"/>
      <point x="26" y="55"/>
      <point x="26" y="66"/>
      <point x="37" y="72" type="curve"/>
    </contour>
  </outline>
</glyph>
